<mxfile host="65bd71144e">
    <diagram id="DTX4y6wzWIgtj7kc9TCp" name="Page-1">
        <mxGraphModel dx="2197" dy="990" grid="1" gridSize="10" guides="1" tooltips="1" connect="1" arrows="1" fold="1" page="1" pageScale="1" pageWidth="827" pageHeight="1169" math="0" shadow="0">
            <root>
                <mxCell id="0"/>
                <mxCell id="1" parent="0"/>
                <mxCell id="2" value="Core&lt;br&gt;&lt;br&gt;Contiene la api principal de wellness pro y sus utilidades" style="rounded=0;whiteSpace=wrap;html=1;" vertex="1" parent="1">
                    <mxGeometry x="-560" y="80" width="340" height="220" as="geometry"/>
                </mxCell>
                <mxCell id="5" value="Admin&lt;br&gt;&lt;br&gt;Panel de administracion de wellnesspro" style="whiteSpace=wrap;html=1;aspect=fixed;" vertex="1" parent="1">
                    <mxGeometry x="320" y="57.5" width="265" height="265" as="geometry"/>
                </mxCell>
                <mxCell id="6" value="Common&lt;br&gt;&lt;br&gt;libreria compartida entre apps , tanto cliente como servidor" style="whiteSpace=wrap;html=1;aspect=fixed;" vertex="1" parent="1">
                    <mxGeometry x="-210" y="370" width="380" height="380" as="geometry"/>
                </mxCell>
                <mxCell id="7" value="" style="whiteSpace=wrap;html=1;aspect=fixed;" vertex="1" parent="1">
                    <mxGeometry x="-90" y="40" width="160" height="160" as="geometry"/>
                </mxCell>
            </root>
        </mxGraphModel>
    </diagram>
</mxfile>